<?xml version="1.0" encoding="utf-8"?>
<svg version="1.1" xmlns:xlink="http://www.w3.org/1999/xlink" width="74px" height="74px" xmlns="http://www.w3.org/2000/svg">
  <g transform="matrix(1 0 0 1 -572 -277 )">
    <path d="M 51.70089285714286 65.10100446428572  C 56.24330357142858 62.69215029761906  59.97358630952382 59.42299107142857  62.89174107142858 55.293526785714285  C 62.28608630952382 51.02641369047619  61.08165922619048 47.481956845238095  59.27845982142858 44.66015625  C 57.47526041666667 41.838355654761905  54.93563988095239 40.20721726190476  51.659598214285715 39.76674107142857  C 49.81510416666667 41.80394345238094  47.619605654761905 43.39378720238094  45.07310267857142 44.53627232142857  C 42.52659970238096 45.67875744047619  39.83556547619048 46.25  37 46.25  C 34.164434523809526 46.25  31.47340029761905 45.67875744047619  28.92689732142857 44.53627232142857  C 26.3803943452381 43.39378720238094  24.184895833333336 41.80394345238094  22.34040178571429 39.76674107142857  C 19.064360119047617 40.20721726190476  16.524739583333336 41.838355654761905  14.721540178571429 44.66015625  C 12.918340773809526 47.481956845238095  11.713913690476192 51.02641369047619  11.108258928571429 55.293526785714285  C 14.026413690476192 59.42299107142857  17.75669642857143 62.69215029761906  22.299107142857142 65.10100446428572  C 26.841517857142858 67.50985863095238  31.74181547619048 68.71428571428572  37 68.71428571428572  C 42.258184523809526 68.71428571428572  47.15848214285714 67.50985863095238  51.70089285714286 65.10100446428572  Z M 48.211495535714285 37.640066964285715  C 51.30859375 34.54296875  52.85714285714286 30.805803571428577  52.85714285714286 26.428571428571423  C 52.85714285714286 22.051339285714285  51.30859375 18.314174107142858  48.211495535714285 15.217075892857142  C 45.11439732142858 12.119977678571425  41.37723214285714 10.571428571428575  37 10.571428571428575  C 32.62276785714286 10.571428571428575  28.88560267857143 12.119977678571425  25.78850446428571 15.217075892857142  C 22.69140625 18.314174107142858  21.142857142857142 22.051339285714285  21.142857142857142 26.428571428571423  C 21.142857142857142 30.805803571428577  22.69140625 34.54296875  25.78850446428571 37.640066964285715  C 28.88560267857143 40.73716517857143  32.62276785714286 42.285714285714285  37 42.285714285714285  C 41.37723214285714 42.285714285714285  45.11439732142858 40.73716517857143  48.211495535714285 37.640066964285715  Z M 71.06808035714286 22.629464285714285  C 73.02269345238096 27.199404761904756  74 31.989583333333332  74 37  C 74 42.010416666666664  73.02269345238096 46.79371279761904  71.06808035714286 51.34988839285714  C 69.11346726190477 55.906063988095234  66.4912574404762 59.84281994047619  63.20145089285714 63.16015625  C 59.9116443452381 66.4774925595238  55.981770833333336 69.11346726190476  51.41183035714286 71.06808035714286  C 46.84188988095239 73.02269345238095  42.03794642857142 74  37 74  C 31.989583333333336 74  27.199404761904763 73.02269345238095  22.62946428571429 71.06808035714286  C 18.05952380952381 69.11346726190476  14.122767857142856 66.484375  10.819196428571429 63.18080357142857  C 7.515625 59.87723214285714  4.886532738095238 55.94047619047619  2.931919642857143 51.370535714285715  C 0.9773065476190474 46.800595238095234  0 42.010416666666664  0 37  C 0 31.989583333333332  0.9773065476190474 27.199404761904756  2.931919642857143 22.629464285714285  C 4.886532738095238 18.059523809523803  7.515625 14.122767857142858  10.819196428571429 10.819196428571425  C 14.122767857142856 7.515625  18.05952380952381 4.886532738095236  22.62946428571429 2.9319196428571415  C 27.199404761904763 0.9773065476190472  31.989583333333336 0  37 0  C 42.01041666666667 0  46.80059523809524 0.9773065476190472  51.370535714285715 2.9319196428571415  C 55.9404761904762 4.886532738095236  59.87723214285714 7.515625  63.18080357142858 10.819196428571425  C 66.48437500000001 14.122767857142858  69.11346726190477 18.059523809523803  71.06808035714286 22.629464285714285  Z " fill-rule="nonzero" fill="#000000" stroke="none" transform="matrix(1 0 0 1 572 277 )" />
  </g>
</svg>