<?xml version="1.0" encoding="utf-8"?>
<svg version="1.1" xmlns:xlink="http://www.w3.org/1999/xlink" width="26px" height="12px" xmlns="http://www.w3.org/2000/svg">
  <g transform="matrix(1 0 0 1 -781 -239 )">
    <path d="M 2.888888888888889 2.3999999999999995  L 21.666666666666668 2.3999999999999995  L 21.666666666666668 9.600000000000001  L 2.888888888888889 9.600000000000001  L 2.888888888888889 2.3999999999999995  Z M 23.11111111111111 10.5  L 23.11111111111111 7.800000000000001  L 24.555555555555554 7.800000000000001  L 24.555555555555554 4.199999999999999  L 23.11111111111111 4.199999999999999  L 23.11111111111111 1.5  C 23.11111111111111 1.4124999999999983  23.077256944444446 1.3406249999999997  23.00954861111111 1.2843750000000003  C 22.94184027777778 1.2281249999999995  22.855324074074076 1.1999999999999997  22.75 1.1999999999999997  L 1.8055555555555556 1.1999999999999997  C 1.7002314814814818 1.1999999999999997  1.613715277777778 1.2281249999999995  1.5460069444444444 1.2843750000000003  C 1.4782986111111112 1.3406249999999997  1.4444444444444444 1.4124999999999983  1.4444444444444444 1.5  L 1.4444444444444444 10.5  C 1.4444444444444444 10.587499999999999  1.4782986111111112 10.659375  1.5460069444444444 10.715625  C 1.613715277777778 10.771875000000001  1.7002314814814818 10.8  1.8055555555555556 10.8  L 22.75 10.8  C 22.855324074074076 10.8  22.94184027777778 10.771875000000001  23.00954861111111 10.715625  C 23.077256944444446 10.659375  23.11111111111111 10.587499999999999  23.11111111111111 10.5  Z M 25.576822916666668 3.3515625  C 25.85894097222222 3.5859374999999987  26 3.8687499999999986  26 4.199999999999999  L 26 7.800000000000001  C 26 8.131249999999998  25.85894097222222 8.4140625  25.576822916666668 8.6484375  C 25.29470486111111 8.8828125  24.95428240740741 9  24.555555555555554 9  L 24.555555555555554 10.5  C 24.555555555555554 10.912500000000001  24.378761574074076 11.265625  24.02517361111111 11.559375  C 23.671585648148152 11.853124999999999  23.24652777777778 12  22.75 12  L 1.8055555555555556 12  C 1.309027777777778 12  0.8839699074074074 11.853124999999999  0.5303819444444444 11.559375  C 0.17679398148148148 11.265625  0 10.912500000000001  0 10.5  L 0 1.5  C 0 1.0874999999999995  0.17679398148148148 0.7343749999999996  0.5303819444444444 0.44062500000000027  C 0.8839699074074074 0.1468749999999983  1.309027777777778 0  1.8055555555555556 0  L 22.75 0  C 23.24652777777778 0  23.671585648148152 0.1468749999999983  24.02517361111111 0.44062500000000027  C 24.378761574074076 0.7343749999999996  24.555555555555554 1.0874999999999995  24.555555555555554 1.5  L 24.555555555555554 3  C 24.95428240740741 2.9999999999999987  25.29470486111111 3.1171874999999987  25.576822916666668 3.3515625  Z " fill-rule="nonzero" fill="#333333" stroke="none" transform="matrix(1 0 0 1 781 239 )" />
  </g>
</svg>