<?xml version="1.0" encoding="utf-8"?>
<svg version="1.1" xmlns:xlink="http://www.w3.org/1999/xlink" width="18px" height="16px" xmlns="http://www.w3.org/2000/svg">
  <g transform="matrix(1 0 0 1 -735 -235 )">
    <path d="M 2.4810267857142856 13.427083333333334  C 2.5412946428571432 13.489583333333334  2.571428571428571 13.569444444444445  2.571428571428571 13.666666666666666  L 2.571428571428571 15.666666666666666  C 2.571428571428571 15.763888888888888  2.5412946428571432 15.84375  2.4810267857142856 15.90625  C 2.420758928571429 15.96875  2.34375 16  2.25 16  L 0.3214285714285714 16  C 0.22767857142857142 16  0.15066964285714288 15.96875  0.09040178571428573 15.90625  C 0.03013392857142857 15.84375  0 15.763888888888888  0 15.666666666666666  L 0 13.666666666666666  C 0 13.569444444444445  0.03013392857142857 13.489583333333334  0.09040178571428573 13.427083333333334  C 0.15066964285714288 13.364583333333334  0.22767857142857142 13.333333333333334  0.3214285714285714 13.333333333333334  L 2.25 13.333333333333334  C 2.34375 13.333333333333334  2.420758928571429 13.364583333333334  2.4810267857142856 13.427083333333334  Z M 6.338169642857142 12.09375  C 6.3984375 12.15625  6.428571428571429 12.236111111111112  6.428571428571429 12.333333333333334  L 6.428571428571429 15.666666666666666  C 6.428571428571429 15.763888888888888  6.3984375 15.84375  6.338169642857142 15.90625  C 6.2779017857142865 15.96875  6.200892857142857 16  6.107142857142858 16  L 4.178571428571429 16  C 4.08482142857143 16  4.007812500000001 15.96875  3.9475446428571432 15.90625  C 3.8872767857142856 15.84375  3.8571428571428568 15.763888888888888  3.8571428571428568 15.666666666666666  L 3.8571428571428568 12.333333333333334  C 3.8571428571428568 12.236111111111112  3.8872767857142856 12.15625  3.9475446428571432 12.09375  C 4.007812500000001 12.03125  4.08482142857143 12  4.178571428571429 12  L 6.107142857142858 12  C 6.200892857142857 12  6.2779017857142865 12.03125  6.338169642857142 12.09375  Z M 10.1953125 9.427083333333332  C 10.255580357142858 9.489583333333332  10.285714285714285 9.569444444444443  10.285714285714285 9.666666666666668  L 10.285714285714285 15.666666666666666  C 10.285714285714285 15.763888888888888  10.255580357142858 15.84375  10.1953125 15.90625  C 10.135044642857142 15.96875  10.058035714285715 16  9.964285714285715 16  L 8.035714285714286 16  C 7.9419642857142865 16  7.8649553571428585 15.96875  7.8046875 15.90625  C 7.744419642857142 15.84375  7.7142857142857135 15.763888888888888  7.7142857142857135 15.666666666666666  L 7.7142857142857135 9.666666666666668  C 7.7142857142857135 9.569444444444443  7.744419642857142 9.489583333333332  7.8046875 9.427083333333332  C 7.8649553571428585 9.364583333333332  7.9419642857142865 9.333333333333332  8.035714285714286 9.333333333333332  L 9.964285714285715 9.333333333333332  C 10.058035714285715 9.333333333333332  10.135044642857142 9.364583333333332  10.1953125 9.427083333333332  Z M 14.052455357142858 5.427083333333334  C 14.112723214285715 5.489583333333334  14.142857142857142 5.569444444444445  14 5.666666666666666  L 14 15.666666666666666  C 14.142857142857142 15.763888888888888  14.112723214285715 15.84375  14.052455357142858 15.90625  C 13.9921875 15.96875  13.915178571428573 16  13.821428571428573 16  L 11.892857142857142 16  C 11.799107142857144 16  11.722098214285715 15.96875  11.661830357142858 15.90625  C 11.6015625 15.84375  11.571428571428573 15.763888888888888  11.571428571428573 15.666666666666666  L 11.571428571428573 5.666666666666666  C 11.571428571428573 5.569444444444445  11.6015625 5.489583333333334  11.661830357142858 5.427083333333334  C 11.722098214285715 5.364583333333334  11.799107142857144 5.333333333333334  11.892857142857142 5.333333333333334  L 13.821428571428573 5.333333333333334  C 13.915178571428573 5.333333333333334  13.9921875 5.364583333333334  14.052455357142858 5.427083333333334  Z M 17.909598214285715 0.09375  C 17.969866071428573 0.15625  18 0.23611111111110894  18 0.3333333333333339  L 18 15.666666666666666  C 18 15.763888888888888  17.969866071428573 15.84375  17.909598214285715 15.90625  C 17.849330357142858 15.96875  17.77232142857143 16  17.678571428571427 16  L 15.75 16  C 15.656250000000004 16  15.579241071428575 15.96875  15.518973214285715 15.90625  C 15.458705357142858 15.84375  15.428571428571427 15.763888888888888  15.428571428571427 15.666666666666666  L 15.428571428571427 0.3333333333333339  C 15.428571428571427 0.23611111111110894  15.458705357142858 0.15625  15.518973214285715 0.09375  C 15.579241071428575 0.03125  15.656250000000004 0  15.75 0  L 17.678571428571427 0  C 17.77232142857143 0  17.849330357142858 0.03125  17.909598214285715 0.09375  Z " fill-rule="nonzero" fill="#333333" stroke="none" transform="matrix(1 0 0 1 735 235 )" />
  </g>
</svg>