<?xml version="1.0" encoding="utf-8"?>
<svg version="1.1" xmlns:xlink="http://www.w3.org/1999/xlink" width="18px" height="14px" xmlns="http://www.w3.org/2000/svg">
  <g transform="matrix(1 0 0 1 -758 -237 )">
    <path d="M 9.85234215885947 13.262365591397849  C 9.406313645621182 13.754121863799284  9.122199592668025 14  9 14  C 8.877800407331977 14  8.59368635437882 13.754121863799284  8.14765784114053 13.262365591397849  C 7.701629327902242 12.770609318996415  7.478615071283096 12.457825567502987  7.478615071283095 12.324014336917562  C 7.478615071283096 12.109916367980885  7.6695519348268855 11.929271206690562  8.05142566191446 11.782078853046595  C 8.433299389002038 11.634886499402628  8.74949083503055 11.561290322580644  9 11.561290322580644  C 9.250509164969452 11.561290322580644  9.566700610997964 11.634886499402628  9.94857433808554 11.782078853046595  C 10.330448065173115 11.929271206690562  10.521384928716904 12.109916367980885  10.521384928716904 12.324014336917562  C 10.521384928716904 12.457825567502987  10.29837067209776 12.770609318996415  9.85234215885947 13.262365591397849  Z M 12.331466395112017 10.527598566308244  C 11.870162932790224 11.029390681003584  11.584521384928717 11.280286738351254  11.474541751527495 11.280286738351254  C 11.462321792260694 11.280286738351254  11.340122199592669 11.196654719235363  11.107942973523421 11.029390681003584  C 10.875763747454176 10.862126642771802  10.565682281059065 10.694862604540022  10.177698574338084 10.527598566308244  C 9.789714867617109 10.360334528076466  9.397148676171081 10.276702508960573  9 10.276702508960573  C 8.602851323828922 10.276702508960573  8.210285132382891 10.360334528076466  7.822301425661914 10.527598566308244  C 7.434317718940937 10.694862604540022  7.125763747454176 10.862126642771802  6.89663951120163 11.029390681003584  C 6.667515274949084 11.196654719235363  6.543788187372709 11.280286738351254  6.525458248472505 11.280286738351254  C 6.415478615071283 11.280286738351254  6.129837067209777 11.029390681003584  5.668533604887983 10.527598566308244  C 5.207230142566192 10.025806451612903  4.976578411405295 9.714695340501793  4.976578411405295 9.594265232974912  C 4.976578411405295 9.507287933094386  5.007128309572302 9.430346475507765  5.0682281059063135 9.363440860215054  C 5.544806517311608 8.84826762246117  6.14358452138493 8.443488649940262  6.864562118126273 8.14910394265233  C 7.585539714867617 7.854719235364396  8.297352342158861 7.70752688172043  9 7.70752688172043  C 9.702647657841142 7.70752688172043  10.414460285132384 7.854719235364396  11.135437881873727 8.14910394265233  C 11.856415478615071 8.443488649940262  12.455193482688392 8.84826762246117  12.931771894093686 9.363440860215054  C 12.992871690427698 9.430346475507765  13.023421588594704 9.507287933094386  13.023421588594704 9.594265232974912  C 13.023421588594704 9.714695340501793  12.792769857433811 10.025806451612903  12.331466395112017 10.527598566308244  Z M 14.819755600814664 7.797849462365591  C 14.361507128309576 8.299641577060932  14.080448065173117 8.550537634408602  13.976578411405296 8.550537634408602  C 13.909368635437882 8.550537634408602  13.83910386965377 8.523775388291515  13.765784114052952 8.470250896057347  C 12.934826883910388 7.767741935483871  12.164969450101834 7.250896057347671  11.45621181262729 6.919713261648746  C 10.74745417515275 6.588530465949821  9.928716904276987 6.422939068100359  9 6.422939068100359  C 8.480651731160897 6.422939068100359  7.959775967413443 6.496535244922343  7.437372708757638 6.643727598566309  C 6.914969450101832 6.790919952210274  6.459775967413441 6.968219832735961  6.071792260692464 7.1756272401433705  C 5.683808553971487 7.383034647550776  5.3370672097759675 7.590442054958182  5.031568228105907 7.797849462365591  C 4.726069246435846 8.005256869772998  4.484725050916498 8.182556750298684  4.307535641547862 8.329749103942653  C 4.130346232179226 8.47694145758662  4.035641547861507 8.550537634408602  4.0234215885947044 8.550537634408602  C 3.919551934826884 8.550537634408602  3.6384928716904277 8.299641577060932  3.180244399185336 7.797849462365591  C 2.7219959266802447 7.296057347670251  2.4928716904276986 6.984946236559139  2.4928716904276986 6.864516129032259  C 2.4928716904276986 6.784229390681003  2.523421588594705 6.71063321385902  2.584521384928717 6.643727598566309  C 3.3910386965376786 5.7605734767025085  4.368635437881874 5.07479091995221  5.517311608961303 4.586379928315411  C 6.665987780040734 4.097968936678614  7.826883910386965 3.853763440860215  9 3.853763440860215  C 10.173116089613035 3.853763440860215  11.334012219959266 4.097968936678614  12.482688391038696 4.586379928315411  C 13.63136456211813 5.07479091995221  14.608961303462321 5.7605734767025085  15.415478615071283 6.643727598566309  C 15.476578411405297 6.71063321385902  15.507128309572304 6.784229390681003  15.507128309572302 6.864516129032259  C 15.507128309572304 6.984946236559139  15.278004073319757 7.296057347670251  14.819755600814664 7.797849462365591  Z M 17.308044806517312 5.0781362007168465  C 16.846741344195518 5.579928315412187  16.564154786150713 5.8308243727598565  16.460285132382893 5.8308243727598565  C 16.39307535641548 5.8308243727598565  16.325865580448067 5.800716845878137  16.25865580448065 5.740501792114695  C 15.164969450101832 4.690083632019116  14.030040733197557 3.8989247311827953  12.85386965376782 3.367025089605735  C 11.677698574338086 2.8351254480286734  10.393075356415478 2.5691756272401434  9 2.5691756272401434  C 7.606924643584521 2.5691756272401434  6.322301425661914 2.8351254480286734  5.146130346232179 3.367025089605735  C 3.969959266802445 3.8989247311827953  2.835030549898167 4.690083632019116  1.7413441955193483 5.740501792114695  C 1.674134419551935 5.800716845878137  1.6069246435845215 5.8308243727598565  1.539714867617108 5.8308243727598565  C 1.4358452138492872 5.8308243727598565  1.1532586558044806 5.579928315412187  0.6919551934826884 5.0781362007168465  C 0.23065173116089616 4.576344086021505  0 4.265232974910394  0 4.144802867383513  C 0 4.057825567502986  0.030549898167006134 3.980884109916367  0.09164969450101833 3.9139784946236555  C 1.2342158859470471 2.6695340501792106  2.593686354378819 1.7060931899641583  4.170061099796333 1.0236559139784946  C 5.746435845213849 0.34121863799283103  7.356415478615071 0  9 0  C 10.64358452138493 0  12.253564154786151 0.34121863799283103  13.829938900203665 1.0236559139784946  C 15.406313645621184 1.7060931899641583  16.765784114052956 2.6695340501792106  17.90835030549898 3.9139784946236555  C 17.969450101832994 3.980884109916367  18 4.057825567502986  18 4.144802867383513  C 18 4.265232974910394  17.769348268839106 4.576344086021505  17.308044806517312 5.0781362007168465  Z " fill-rule="nonzero" fill="#333333" stroke="none" transform="matrix(1 0 0 1 758 237 )" />
  </g>
</svg>