<?xml version="1.0" encoding="utf-8"?>
<svg version="1.1" xmlns:xlink="http://www.w3.org/1999/xlink" width="74px" height="74px" xmlns="http://www.w3.org/2000/svg">
  <g transform="matrix(1 0 0 1 -572 -277 )">
    <path d="M 609 277  C 629.72 277  646 293.28  646 314  C 646 334.72  629.72 351  609 351  C 588.28 351  572 334.72  572 314  C 572 293.28  588.28 277  609 277  Z " fill-rule="nonzero" fill="#ffffff" stroke="none" />
    <path d="M 609 277.5  C 629.44 277.5  645.5 293.56  645.5 314  C 645.5 334.44  629.44 350.5  609 350.5  C 588.56 350.5  572.5 334.44  572.5 314  C 572.5 293.56  588.56 277.5  609 277.5  Z " stroke-width="1" stroke="#797979" fill="none" />
  </g>
</svg>